<svg width="150" height="150" viewBox="0 0 150 150" fill="none" xmlns="http://www.w3.org/2000/svg">
<path d="M74.9882 150L68.0891 120.626C65.8759 111.21 61.08 102.599 54.2407 95.7594C47.4013 88.92 38.7898 84.1241 29.3741 81.9109L0 75.0118L29.3741 68.0891C38.7909 65.8784 47.4039 61.0834 54.2436 54.2436C61.0834 47.4039 65.8784 38.7909 68.0891 29.3741L74.9882 0L81.8872 29.3741C84.1199 38.7844 88.9252 47.3887 95.7661 54.2254C102.607 61.0622 111.214 65.8622 120.626 68.0891L150 75.0118L120.626 81.9109C111.209 84.1216 102.596 88.9166 95.7564 95.7564C88.9167 102.596 84.1216 111.209 81.9109 120.626L74.9882 150Z" fill="#FF8C00"/>
</svg>
