<svg width="65" height="65" viewBox="0 0 65 65" fill="none" xmlns="http://www.w3.org/2000/svg">
<path d="M0 32.4882L12.7395 29.5046C16.8196 28.5438 20.5505 26.4632 23.5124 23.4972C26.4743 20.5311 28.5495 16.7973 29.5046 12.7158L32.5118 0L35.4954 12.7158C36.4549 16.7991 38.5345 20.5337 41.5004 23.4996C44.4663 26.4655 48.2009 28.5451 52.2842 29.5046L65 32.4882L52.2842 35.4955C48.2027 36.4505 44.4689 38.5257 41.5028 41.4876C38.5368 44.4495 36.4563 48.1804 35.4954 52.2605L32.5118 65L29.5046 52.2605C28.5481 48.1822 26.472 44.452 23.51 41.49C20.548 38.528 16.8178 36.4519 12.7395 35.4955L0 32.4882Z" fill="#8B4BEF"/>
</svg>
