<svg width="115" height="123" viewBox="0 0 115 123" fill="none" xmlns="http://www.w3.org/2000/svg">
<path d="M74.9882 123L68.0891 93.6259C65.8759 84.2102 61.08 75.5987 54.2407 68.7594C47.4013 61.92 38.7898 57.1241 29.3741 54.9109L0 48.0118L29.3741 41.0891C38.7909 38.8784 47.4039 34.0834 54.2436 27.2436C61.0834 20.4039 65.8784 11.7909 68.0891 2.37411L74.9882 -27L81.8872 2.37411C84.1199 11.7844 88.9252 20.3887 95.7661 27.2254C102.607 34.0622 111.214 38.8622 120.626 41.0891L150 48.0118L120.626 54.9109C111.209 57.1216 102.596 61.9166 95.7564 68.7564C88.9167 75.5961 84.1216 84.2091 81.9109 93.6259L74.9882 123Z" fill="#FF8C00"/>
</svg>
